<svg width="4448" height="1666" viewBox="0 0 4448 1666" fill="none" xmlns="http://www.w3.org/2000/svg">
<path d="M1003.64 587.332L1174.57 341.908C1445.66 530.713 1512.36 903.53 1323.56 1174.62C1134.75 1445.71 761.937 1512.41 490.849 1323.61C694.165 1465.21 973.778 1415.18 1115.38 1211.87C1256.99 1008.55 1206.96 728.936 1003.64 587.332Z" fill="url(#paint0_linear_112_7)"/>
<path d="M485.522 590.95C635.643 483.164 843.353 475.696 1003.64 587.332L1174.57 341.908C971.256 200.304 691.643 250.332 550.04 453.648C520.072 496.675 498.688 543.12 485.522 590.95Z" fill="url(#paint1_linear_112_7)"/>
<path d="M1323.56 1174.62C1323.56 1174.62 1323.56 1174.62 1323.56 1174.62Z" fill="url(#paint2_linear_112_7)"/>
<path d="M661.812 1078.13L490.881 1323.56C219.793 1134.75 153.089 761.936 341.894 490.848C530.699 219.76 903.516 153.057 1174.6 341.862C971.288 200.258 691.676 250.286 550.072 453.602C408.468 656.918 458.496 936.531 661.812 1078.13Z" fill="url(#paint3_linear_112_7)"/>
<path d="M1179.93 1074.52C1029.81 1182.3 822.101 1189.77 661.812 1078.13L490.881 1323.56C694.197 1465.16 973.81 1415.13 1115.41 1211.82C1145.38 1168.79 1166.77 1122.35 1179.93 1074.52Z" fill="url(#paint4_linear_112_7)"/>
<path d="M341.894 490.848C341.894 490.848 341.894 490.848 341.894 490.848Z" fill="url(#paint5_linear_112_7)"/>
<path d="M1726.9 764.1V829.8H1850.2V893.25H1726.9V1017H1650.85V698.4H1860.55V764.1H1726.9ZM2080.68 1017L2011.83 890.55H1985.73V1017H1910.13V698.4H2031.63C2046.93 698.4 2061.78 700.05 2076.18 703.35C2090.88 706.35 2103.93 711.6 2115.33 719.1C2127.03 726.6 2136.33 736.5 2143.23 748.8C2150.13 761.1 2153.58 776.4 2153.58 794.7C2153.58 816.3 2147.73 834.45 2136.03 849.15C2124.33 863.85 2108.13 874.35 2087.43 880.65L2170.68 1017H2080.68ZM2077.53 796.05C2077.53 788.55 2075.88 782.55 2072.58 778.05C2069.58 773.25 2065.53 769.65 2060.43 767.25C2055.63 764.55 2050.08 762.75 2043.78 761.85C2037.78 760.95 2031.93 760.5 2026.23 760.5H1985.28V834.75H2021.73C2028.03 834.75 2034.48 834.3 2041.08 833.4C2047.68 832.2 2053.68 830.25 2059.08 827.55C2064.48 824.85 2068.83 820.95 2072.13 815.85C2075.73 810.75 2077.53 804.15 2077.53 796.05ZM2424.52 1017L2399.77 954.45H2276.47L2253.07 1017H2169.37L2303.02 698.4H2377.72L2510.02 1017H2424.52ZM2339.02 783.45L2298.52 892.8H2378.62L2339.02 783.45ZM2825.25 1017L2827.05 791.55H2825.7L2742.9 1017H2688.9L2608.35 791.55H2607L2608.8 1017H2536.35V698.4H2645.7L2718.15 902.7H2719.95L2789.25 698.4H2900.4V1017H2825.25ZM3298.23 856.35C3298.23 881.55 3293.88 904.65 3285.18 925.65C3276.48 946.35 3264.33 964.2 3248.73 979.2C3233.43 993.9 3215.13 1005.3 3193.83 1013.4C3172.53 1021.5 3149.43 1025.55 3124.53 1025.55C3099.63 1025.55 3076.53 1021.5 3055.23 1013.4C3034.23 1005.3 3015.93 993.9 3000.33 979.2C2985.03 964.2 2973.03 946.35 2964.33 925.65C2955.63 904.65 2951.28 881.55 2951.28 856.35C2951.28 830.85 2955.63 807.9 2964.33 787.5C2973.03 766.8 2985.03 749.25 3000.33 734.85C3015.93 720.45 3034.23 709.35 3055.23 701.55C3076.53 693.75 3099.63 689.85 3124.53 689.85C3149.43 689.85 3172.53 693.75 3193.83 701.55C3215.13 709.35 3233.43 720.45 3248.73 734.85C3264.33 749.25 3276.48 766.8 3285.18 787.5C3293.88 807.9 3298.23 830.85 3298.23 856.35ZM3215.88 856.35C3215.88 842.55 3213.63 829.65 3209.13 817.65C3204.63 805.65 3198.33 795.45 3190.23 787.05C3182.43 778.35 3172.83 771.6 3161.43 766.8C3150.33 761.7 3138.03 759.15 3124.53 759.15C3111.03 759.15 3098.73 761.7 3087.63 766.8C3076.53 771.6 3066.93 778.35 3058.83 787.05C3050.73 795.45 3044.43 805.65 3039.93 817.65C3035.73 829.65 3033.63 842.55 3033.63 856.35C3033.63 870.75 3035.88 884.1 3040.38 896.4C3044.88 908.4 3051.03 918.75 3058.83 927.45C3066.93 936.15 3076.53 943.05 3087.63 948.15C3098.73 952.95 3111.03 955.35 3124.53 955.35C3138.03 955.35 3150.33 952.95 3161.43 948.15C3172.53 943.05 3182.13 936.15 3190.23 927.45C3198.33 918.75 3204.63 908.4 3209.13 896.4C3213.63 884.1 3215.88 870.75 3215.88 856.35ZM3348.9 1017V698.4H3426.3V949.95H3549.6V1017H3348.9ZM3585.76 1017V698.4H3799.96V763.65H3660.01V823.5H3792.31V885.15H3660.01V951.3H3808.06V1017H3585.76ZM4061.6 1017L3933.35 808.65H3932L3933.8 1017H3859.1V698.4H3946.85L4074.65 906.3H4076L4074.2 698.4H4148.9V1017H4061.6ZM4382.92 781.2C4376.32 772.8 4367.62 766.2 4356.82 761.4C4346.32 756.3 4336.12 753.75 4326.22 753.75C4321.12 753.75 4315.87 754.2 4310.47 755.1C4305.37 756 4300.72 757.8 4296.52 760.5C4292.32 762.9 4288.72 766.2 4285.72 770.4C4283.02 774.3 4281.67 779.4 4281.67 785.7C4281.67 791.1 4282.72 795.6 4284.82 799.2C4287.22 802.8 4290.52 805.95 4294.72 808.65C4299.22 811.35 4304.47 813.9 4310.47 816.3C4316.47 818.4 4323.22 820.65 4330.72 823.05C4341.52 826.65 4352.77 830.7 4364.47 835.2C4376.17 839.4 4386.82 845.1 4396.42 852.3C4406.02 859.5 4413.97 868.5 4420.27 879.3C4426.57 889.8 4429.72 903 4429.72 918.9C4429.72 937.2 4426.27 953.1 4419.37 966.6C4412.77 979.8 4403.77 990.75 4392.37 999.45C4380.97 1008.15 4367.92 1014.6 4353.22 1018.8C4338.52 1023 4323.37 1025.1 4307.77 1025.1C4284.97 1025.1 4262.92 1021.2 4241.62 1013.4C4220.32 1005.3 4202.62 993.9 4188.52 979.2L4238.92 927.9C4246.72 937.5 4256.92 945.6 4269.52 952.2C4282.42 958.5 4295.17 961.65 4307.77 961.65C4313.47 961.65 4319.02 961.05 4324.42 959.85C4329.82 958.65 4334.47 956.7 4338.37 954C4342.57 951.3 4345.87 947.7 4348.27 943.2C4350.67 938.7 4351.87 933.3 4351.87 927C4351.87 921 4350.37 915.9 4347.37 911.7C4344.37 907.5 4340.02 903.75 4334.32 900.45C4328.92 896.85 4322.02 893.7 4313.62 891C4305.52 888 4296.22 884.85 4285.72 881.55C4275.52 878.25 4265.47 874.35 4255.57 869.85C4245.97 865.35 4237.27 859.65 4229.47 852.75C4221.97 845.55 4215.82 837 4211.02 827.1C4206.52 816.9 4204.27 804.6 4204.27 790.2C4204.27 772.5 4207.87 757.35 4215.07 744.75C4222.27 732.15 4231.72 721.8 4243.42 713.7C4255.12 705.6 4268.32 699.75 4283.02 696.15C4297.72 692.25 4312.57 690.3 4327.57 690.3C4345.57 690.3 4363.87 693.6 4382.47 700.2C4401.37 706.8 4417.87 716.55 4431.97 729.45L4382.92 781.2Z" fill="#3D3D3D"/>
<defs>
<linearGradient id="paint0_linear_112_7" x1="1236.42" y1="384.983" x2="981.697" y2="1665.47" gradientUnits="userSpaceOnUse">
<stop stop-color="#009E60"/>
<stop offset="1" stop-color="#C7E8DB"/>
</linearGradient>
<linearGradient id="paint1_linear_112_7" x1="1236.42" y1="384.983" x2="981.697" y2="1665.47" gradientUnits="userSpaceOnUse">
<stop stop-color="#009E60"/>
<stop offset="1" stop-color="#C7E8DB"/>
</linearGradient>
<linearGradient id="paint2_linear_112_7" x1="1236.42" y1="384.983" x2="981.697" y2="1665.47" gradientUnits="userSpaceOnUse">
<stop stop-color="#009E60"/>
<stop offset="1" stop-color="#C7E8DB"/>
</linearGradient>
<linearGradient id="paint3_linear_112_7" x1="429.034" y1="1280.48" x2="683.756" y2="-0.000256711" gradientUnits="userSpaceOnUse">
<stop stop-color="#009E60"/>
<stop offset="1" stop-color="#C7E8DB"/>
</linearGradient>
<linearGradient id="paint4_linear_112_7" x1="429.034" y1="1280.48" x2="683.756" y2="-0.000256711" gradientUnits="userSpaceOnUse">
<stop stop-color="#009E60"/>
<stop offset="1" stop-color="#C7E8DB"/>
</linearGradient>
<linearGradient id="paint5_linear_112_7" x1="429.034" y1="1280.48" x2="683.756" y2="-0.000256711" gradientUnits="userSpaceOnUse">
<stop stop-color="#009E60"/>
<stop offset="1" stop-color="#C7E8DB"/>
</linearGradient>
</defs>
</svg>
